<!-- NBDpsy 封面素材库 | 意象：大脑：神经机制、认知
     来源：Lucide · brain | https://raw.githubusercontent.com/lucide-icons/lucide/main/icons/brain.svg
     许可证：ISC（Lucide Icons and Contributors）| 需署名：否（商用免署名）
     下载日期：2026-08-17 | 改造：仅加本注释与 class="nbd-svg-icon"，图形与 currentColor 未改 -->
<svg class="nbd-svg-icon"
  xmlns="http://www.w3.org/2000/svg"
  width="24"
  height="24"
  viewBox="0 0 24 24"
  fill="none"
  stroke="currentColor"
  stroke-width="2"
  stroke-linecap="round"
  stroke-linejoin="round"
>
  <path d="M12 18V5" />
  <path d="M15 13a4.17 4.17 0 0 1-3-4 4.17 4.17 0 0 1-3 4" />
  <path d="M17.598 6.5A3 3 0 1 0 12 5a3 3 0 1 0-5.598 1.5" />
  <path d="M17.997 5.125a4 4 0 0 1 2.526 5.77" />
  <path d="M18 18a4 4 0 0 0 2-7.464" />
  <path d="M19.967 17.483A4 4 0 1 1 12 18a4 4 0 1 1-7.967-.517" />
  <path d="M6 18a4 4 0 0 1-2-7.464" />
  <path d="M6.003 5.125a4 4 0 0 0-2.526 5.77" />
</svg>
