<!-- NBDpsy 封面素材库 | 意象：花：绽放、被看见
     来源：Lucide · flower | https://raw.githubusercontent.com/lucide-icons/lucide/main/icons/flower.svg
     许可证：ISC（Lucide Icons and Contributors）| 需署名：否（商用免署名）
     下载日期：2026-08-17 | 改造：仅加本注释与 class="nbd-svg-icon"，图形与 currentColor 未改 -->
<svg class="nbd-svg-icon"
  xmlns="http://www.w3.org/2000/svg"
  width="24"
  height="24"
  viewBox="0 0 24 24"
  fill="none"
  stroke="currentColor"
  stroke-width="2"
  stroke-linecap="round"
  stroke-linejoin="round"
>
  <circle cx="12" cy="12" r="3" />
  <path d="M12 16.5A4.5 4.5 0 1 1 7.5 12 4.5 4.5 0 1 1 12 7.5a4.5 4.5 0 1 1 4.5 4.5 4.5 4.5 0 1 1-4.5 4.5" />
  <path d="M12 7.5V9" />
  <path d="M7.5 12H9" />
  <path d="M16.5 12H15" />
  <path d="M12 16.5V15" />
  <path d="m8 8 1.88 1.88" />
  <path d="M14.12 9.88 16 8" />
  <path d="m8 16 1.88-1.88" />
  <path d="M14.12 14.12 16 16" />
</svg>
