<!-- NBDpsy 封面素材库 | 意象：张开的手掌：交托、坦白、停一停
     来源：Lucide · hand | https://raw.githubusercontent.com/lucide-icons/lucide/main/icons/hand.svg
     许可证：ISC（Lucide Icons and Contributors）| 需署名：否（商用免署名）
     下载日期：2026-08-17 | 改造：仅加本注释与 class="nbd-svg-icon"，图形与 currentColor 未改 -->
<svg class="nbd-svg-icon"
  xmlns="http://www.w3.org/2000/svg"
  width="24"
  height="24"
  viewBox="0 0 24 24"
  fill="none"
  stroke="currentColor"
  stroke-width="2"
  stroke-linecap="round"
  stroke-linejoin="round"
>
  <path d="M18 11V6a2 2 0 0 0-2-2a2 2 0 0 0-2 2" />
  <path d="M14 10V4a2 2 0 0 0-2-2a2 2 0 0 0-2 2v2" />
  <path d="M10 10.5V6a2 2 0 0 0-2-2a2 2 0 0 0-2 2v8" />
  <path d="M18 8a2 2 0 1 1 4 0v6a8 8 0 0 1-8 8h-2c-2.8 0-4.5-.86-5.99-2.34l-3.6-3.6a2 2 0 0 1 2.83-2.82L7 15" />
</svg>
