<!-- NBDpsy 封面素材库 | 意象：台灯：夜里的安全感、有人为你留灯
     来源：Lucide · lamp | https://raw.githubusercontent.com/lucide-icons/lucide/main/icons/lamp.svg
     许可证：ISC（Lucide Icons and Contributors）| 需署名：否（商用免署名）
     下载日期：2026-08-17 | 改造：仅加本注释与 class="nbd-svg-icon"，图形与 currentColor 未改 -->
<svg class="nbd-svg-icon"
  xmlns="http://www.w3.org/2000/svg"
  width="24"
  height="24"
  viewBox="0 0 24 24"
  fill="none"
  stroke="currentColor"
  stroke-width="2"
  stroke-linecap="round"
  stroke-linejoin="round"
>
  <path d="M12 12v6" />
  <path d="M4.077 10.615A1 1 0 0 0 5 12h14a1 1 0 0 0 .923-1.385l-3.077-7.384A2 2 0 0 0 15 2H9a2 2 0 0 0-1.846 1.23Z" />
  <path d="M8 20a2 2 0 0 1 2-2h4a2 2 0 0 1 2 2v1a1 1 0 0 1-1 1H9a1 1 0 0 1-1-1z" />
</svg>
