<!-- NBDpsy 封面素材库 | 意象：拼图：整合、缺失的一块
     来源：Lucide · puzzle | https://raw.githubusercontent.com/lucide-icons/lucide/main/icons/puzzle.svg
     许可证：ISC（Lucide Icons and Contributors）| 需署名：否（商用免署名）
     下载日期：2026-08-17 | 改造：仅加本注释与 class="nbd-svg-icon"，图形与 currentColor 未改 -->
<svg class="nbd-svg-icon"
  xmlns="http://www.w3.org/2000/svg"
  width="24"
  height="24"
  viewBox="0 0 24 24"
  fill="none"
  stroke="currentColor"
  stroke-width="2"
  stroke-linecap="round"
  stroke-linejoin="round"
>
  <path d="M15.39 4.39a1 1 0 0 0 1.68-.474 2.5 2.5 0 1 1 3.014 3.015 1 1 0 0 0-.474 1.68l1.683 1.682a2.414 2.414 0 0 1 0 3.414L19.61 15.39a1 1 0 0 1-1.68-.474 2.5 2.5 0 1 0-3.014 3.015 1 1 0 0 1 .474 1.68l-1.683 1.682a2.414 2.414 0 0 1-3.414 0L8.61 19.61a1 1 0 0 0-1.68.474 2.5 2.5 0 1 1-3.014-3.015 1 1 0 0 0 .474-1.68l-1.683-1.682a2.414 2.414 0 0 1 0-3.414L4.39 8.61a1 1 0 0 1 1.68.474 2.5 2.5 0 1 0 3.014-3.015 1 1 0 0 1-.474-1.68l1.683-1.682a2.414 2.414 0 0 1 3.414 0z" />
</svg>
